# xmcd CD database file
#
# Track frame offsets:
#	150
#	17536
#	36485
#	48344
#	64293
#	83015
#	93064
#	109415
#	131890
#
# Disc length: 2095 seconds
#
# Revision: 0
# Processed by: cddbd v1.5.1PL0 Copyright (c) Steve Scherf et al.
# Submitted via: CDex 1.51
#
DISCID=74082d09
DTITLE=Melektaus - Transcendence Through Ethereal Scourge
DYEAR=1900
DGENRE=ブラック/デス メタル
TTITLE0=The Rebellion Against The False God
TTITLE1=Transcendence Through Ethereal Scourge
TTITLE2=The Flame Of Knowledge
TTITLE3=Kakophonic Whispers
TTITLE4=Adoration To The Most High Powers
TTITLE5=The Primal Void Of Nothingness
TTITLE6=Ectasy In Heru-Ra-Ha
TTITLE7=Upon The Flames
TTITLE8=Regression To The Primary State
EXTD=
EXTT0=
EXTT1=
EXTT2=
EXTT3=
EXTT4=
EXTT5=
EXTT6=
EXTT7=
EXTT8=
PLAYORDER=
